HIERARCHY
ROOT Hips
{
	OFFSET -14.64140 90.27770 -84.91600
	CHANNELS 6 Xposition Yposition Zposition Zrotation Xrotation Yrotation
	JOINT Spine
	{
		OFFSET 0.00000 13.20850 -1.60436
		CHANNELS 3 Zrotation Xrotation Yrotation
		JOINT Spine1
		{
			OFFSET 0.00000 8.61716 0.00000
			CHANNELS 3 Zrotation Xrotation Yrotation
			JOINT Spine2
			{
				OFFSET 0.00000 8.61717 0.00000
				CHANNELS 3 Zrotation Xrotation Yrotation
				JOINT Spine3
				{
					OFFSET 0.00000 8.61717 0.00000
					CHANNELS 3 Zrotation Xrotation Yrotation
					JOINT Neck
					{
						OFFSET 0.00000 11.07920 1.10792
						CHANNELS 3 Zrotation Xrotation Yrotation
						JOINT Neck1
						{
							OFFSET 0.00000 7.08032 0.00000
							CHANNELS 3 Zrotation Xrotation Yrotation
							JOINT Head
							{
								OFFSET 0.00000 7.08031 0.00000
								CHANNELS 3 Zrotation Xrotation Yrotation
								End site
								{
									OFFSET 0.00000 0.00000 0.00000
								}
							}
						}
					}
					JOINT RightShoulder
					{
						OFFSET -0.01000 7.91373 5.19711
						CHANNELS 3 Zrotation Xrotation Yrotation
						JOINT RightArm
						{
							OFFSET -18.41580 0.00000 0.00000
							CHANNELS 3 Zrotation Xrotation Yrotation
							JOINT RightForeArm
							{
								OFFSET -29.11090 0.00000 0.00000
								CHANNELS 3 Zrotation Xrotation Yrotation
								JOINT RightHand
								{
									OFFSET -24.65040 0.00000 0.00000
									CHANNELS 3 Zrotation Xrotation Yrotation
									JOINT RightHandThumb1
									{
										OFFSET -5.35114 -0.85590 3.97906
										CHANNELS 3 Zrotation Xrotation Yrotation
										JOINT RightHandThumb2
										{
											OFFSET -4.52789 0.00000 0.00000
											CHANNELS 3 Zrotation Xrotation Yrotation
											JOINT RightHandThumb3
											{
												OFFSET -2.46976 0.00000 0.00000
												CHANNELS 3 Zrotation Xrotation Yrotation
												End site
												{
													OFFSET 0.00000 0.00000 0.00000
												}
											}
										}
									}
									JOINT RightHandIndex1
									{
										OFFSET -14.26970 0.00000 2.88139
										CHANNELS 3 Zrotation Xrotation Yrotation
										JOINT RightHandIndex2
										{
											OFFSET -5.48836 0.00000 0.00000
											CHANNELS 3 Zrotation Xrotation Yrotation
											JOINT RightHandIndex3
											{
												OFFSET -3.01859 0.00000 0.00000
												CHANNELS 3 Zrotation Xrotation Yrotation
												End site
												{
													OFFSET 0.00000 0.00000 0.00000
												}
											}
										}
									}
									JOINT RightHandMiddle1
									{
										OFFSET -14.26970 0.00000 -0.09147
										CHANNELS 3 Zrotation Xrotation Yrotation
										JOINT RightHandMiddle2
										{
											OFFSET -6.17441 0.00000 0.00000
											CHANNELS 3 Zrotation Xrotation Yrotation
											JOINT RightHandMiddle3
											{
												OFFSET -3.56743 0.00000 0.00000
												CHANNELS 3 Zrotation Xrotation Yrotation
												End site
												{
													OFFSET 0.00000 0.00000 0.00000
												}
											}
										}
									}
									JOINT RightHandRing1
									{
										OFFSET -12.69180 0.00000 -3.06433
										CHANNELS 3 Zrotation Xrotation Yrotation
										JOINT RightHandRing2
										{
											OFFSET -5.62556 0.00000 0.00000
											CHANNELS 3 Zrotation Xrotation Yrotation
											JOINT RightHandRing3
											{
												OFFSET -3.56744 0.00000 0.00000
												CHANNELS 3 Zrotation Xrotation Yrotation
												End site
												{
													OFFSET 0.00000 0.00000 0.00000
												}
											}
										}
									}
									JOINT RightHandPinky1
									{
										OFFSET -11.11390 0.00000 -6.03719
										CHANNELS 3 Zrotation Xrotation Yrotation
										JOINT RightHandPinky2
										{
											OFFSET -4.52789 0.00000 0.00000
											CHANNELS 3 Zrotation Xrotation Yrotation
											JOINT RightHandPinky3
											{
												OFFSET -2.46976 0.00000 0.00000
												CHANNELS 3 Zrotation Xrotation Yrotation
												End site
												{
													OFFSET 0.00000 0.00000 0.00000
												}
											}
										}
									}
								}
							}
						}
					}
					JOINT LeftShoulder
					{
						OFFSET 0.01000 7.91373 5.19711
						CHANNELS 3 Zrotation Xrotation Yrotation
						JOINT LeftArm
						{
							OFFSET 18.41580 0.00000 0.00000
							CHANNELS 3 Zrotation Xrotation Yrotation
							JOINT LeftForeArm
							{
								OFFSET 29.11090 0.00000 0.00000
								CHANNELS 3 Zrotation Xrotation Yrotation
								JOINT LeftHand
								{
									OFFSET 24.65040 0.00000 0.00000
									CHANNELS 3 Zrotation Xrotation Yrotation
									JOINT LeftHandThumb1
									{
										OFFSET 5.35114 -0.85590 3.97906
										CHANNELS 3 Zrotation Xrotation Yrotation
										JOINT LeftHandThumb2
										{
											OFFSET 4.52789 0.00000 0.00000
											CHANNELS 3 Zrotation Xrotation Yrotation
											JOINT LeftHandThumb3
											{
												OFFSET 2.46977 0.00000 0.00000
												CHANNELS 3 Zrotation Xrotation Yrotation
												End site
												{
													OFFSET 0.00000 0.00000 0.00000
												}
											}
										}
									}
									JOINT LeftHandIndex1
									{
										OFFSET 14.26970 0.00000 2.88139
										CHANNELS 3 Zrotation Xrotation Yrotation
										JOINT LeftHandIndex2
										{
											OFFSET 5.48836 0.00000 0.00000
											CHANNELS 3 Zrotation Xrotation Yrotation
											JOINT LeftHandIndex3
											{
												OFFSET 3.01859 0.00000 0.00000
												CHANNELS 3 Zrotation Xrotation Yrotation
												End site
												{
													OFFSET 0.00000 0.00000 0.00000
												}
											}
										}
									}
									JOINT LeftHandMiddle1
									{
										OFFSET 14.26970 0.00000 -0.09147
										CHANNELS 3 Zrotation Xrotation Yrotation
										JOINT LeftHandMiddle2
										{
											OFFSET 6.17440 0.00000 0.00000
											CHANNELS 3 Zrotation Xrotation Yrotation
											JOINT LeftHandMiddle3
											{
												OFFSET 3.56744 0.00000 0.00000
												CHANNELS 3 Zrotation Xrotation Yrotation
												End site
												{
													OFFSET 0.00000 0.00000 0.00000
												}
											}
										}
									}
									JOINT LeftHandRing1
									{
										OFFSET 12.69180 0.00000 -3.06433
										CHANNELS 3 Zrotation Xrotation Yrotation
										JOINT LeftHandRing2
										{
											OFFSET 5.62556 0.00000 0.00000
											CHANNELS 3 Zrotation Xrotation Yrotation
											JOINT LeftHandRing3
											{
												OFFSET 3.56744 0.00000 0.00000
												CHANNELS 3 Zrotation Xrotation Yrotation
												End site
												{
													OFFSET 0.00000 0.00000 0.00000
												}
											}
										}
									}
									JOINT LeftHandPinky1
									{
										OFFSET 11.11390 0.00000 -6.03719
										CHANNELS 3 Zrotation Xrotation Yrotation
										JOINT LeftHandPinky2
										{
											OFFSET 4.52789 0.00000 0.00000
											CHANNELS 3 Zrotation Xrotation Yrotation
											JOINT LeftHandPinky3
											{
												OFFSET 2.46976 0.00000 0.00000
												CHANNELS 3 Zrotation Xrotation Yrotation
												End site
												{
													OFFSET 0.00000 0.00000 0.00000
												}
											}
										}
									}
								}
							}
						}
					}
					JOINT pCube4
					{
						OFFSET 0.00000 10.91090 1.10792
						CHANNELS 3 Zrotation Xrotation Yrotation
						End site
						{
							OFFSET 0.00000 0.00000 0.00000
						}
					}
				}
			}
		}
	}
	JOINT RightUpLeg
	{
		OFFSET -9.98441 0.00000 0.00000
		CHANNELS 3 Zrotation Xrotation Yrotation
		JOINT RightLeg
		{
			OFFSET 0.00000 -42.11790 0.00000
			CHANNELS 3 Zrotation Xrotation Yrotation
			JOINT RightFoot
			{
				OFFSET 0.00000 -45.00020 -0.00001
				CHANNELS 3 Zrotation Xrotation Yrotation
				JOINT RightForeFoot
				{
					OFFSET 0.00000 -3.74820 0.00000
					CHANNELS 3 Zrotation Xrotation Yrotation
					JOINT RightToeBase
					{
						OFFSET 0.00000 0.06325 14.43120
						CHANNELS 3 Zrotation Xrotation Yrotation
						End site
						{
							OFFSET 0.00000 0.00000 0.00000
						}
					}
				}
			}
		}
	}
	JOINT LeftUpLeg
	{
		OFFSET 9.98441 0.00000 0.00000
		CHANNELS 3 Zrotation Xrotation Yrotation
		JOINT LeftLeg
		{
			OFFSET 0.00000 -42.11800 0.00000
			CHANNELS 3 Zrotation Xrotation Yrotation
			JOINT LeftFoot
			{
				OFFSET 0.00000 -45.00070 0.00000
				CHANNELS 3 Zrotation Xrotation Yrotation
				JOINT LeftForeFoot
				{
					OFFSET 0.00000 -3.74824 0.00000
					CHANNELS 3 Zrotation Xrotation Yrotation
					JOINT LeftToeBase
					{
						OFFSET 0.00000 0.06325 14.43110
						CHANNELS 3 Zrotation Xrotation Yrotation
						End site
						{
							OFFSET 0.00000 0.00000 0.00000
						}
					}
				}
			}
		}
	}
}
MOTION
Frames: 4
Frame Time: 0.050000
0.0 0.0 0.0 -0.0 0.0 -0.0 0.806580226529407 1.8709416197111417 -1.5706088883275646 -1.192061853933814 4.0153619934505045 0.4821294882434132 -1.0391022957725822 -1.4381068373599557 -0.9384692297001099 0.27688769611158853 0.0981666116266044 -0.7059318040983862 -0.35731579686680365 15.325269831122014 -0.172422463222993 -0.1325954057916667 0.6152524950430576 -0.9560446119755845 -0.014710940682204274 -14.864133568191427 -0.04894522317604404 -12.09799215309943 6.265866416100317 -12.968428406557905 55.01761176010465 36.52625528185884 34.24930575954122 17.807885676713525 38.26826773057988 82.36237773451592 4.507914321400369 -0.5086152486967122 -3.4154250735630423 -3.86536 -0.725977 10.6206 -1.70868e-06 -5.05035e-06 -4.22763e-05 5.3837e-07 8.68739e-07 -7.6876e-07 3.79151 9.92397e-06 1.68822e-06 1.76556e-31 -6.36111e-15 1.59028e-15 1.59028e-15 0.0 1.59028e-15 12.7179 -3.38534e-07 3.6896e-06 1.59028e-15 -3.18056e-15 -6.36111e-15 -3.18055e-15 -1.27222e-14 -6.36111e-15 20.451 2.13561e-06 4.66857e-06 -5.59711e-07 -9.78871e-07 1.24245e-06 1.11942e-06 1.95774e-06 -2.4849e-06 43.7139 5.29982e-06 -4.35576e-06 -4.8428e-07 -7.08272e-07 1.41429e-06 4.77083e-15 1.27222e-14 3.18055e-15 11.964595555065587 5.37067196849841 11.44582902916047 -35.29928087247 45.264377663758495 -27.07007333181199 -13.528858445188979 -20.76495741007434 -97.16907261194872 2.489801665490025 -0.18711719941218083 -3.7051531323924882 4.41974 -2.75119 -31.8364 2.03418e-06 8.96391e-07 2.71781e-05 3.54379e-06 -1.37708e-07 7.74142e-07 -99.3752 -3.44396e-06 -1.15962e-07 -2.94194e-05 8.15215e-07 -1.12913e-05 -1.15373e-06 -7.17353e-08 -2.96415e-06 -112.724 2.1834e-06 6.07179e-06 -2.81255e-05 -3.4463e-06 7.51827e-08 -9.56363e-07 -5.99521e-07 6.03149e-07 -94.5227 -9.2214e-07 -5.10994e-06 6.36111e-15 0.0 -1.78906e-14 1.2491e-06 6.621e-07 -9.2051e-07 -89.4629 1.15124e-05 -2.27079e-06 -1.9342e-05 1.85979e-06 1.38071e-06 -4.41391e-32 3.18056e-15 7.95139e-16 3.97569e-16 -1.09925e-15 -1.59028e-15 -20.1051 -0.55943 -19.9906 2.43385e-06 39.5646 -2.64641e-06 4.82005 -16.7989 -10.6968 3.97569e-16 0.0 -3.18056e-15 4.85298e-07 6.71905 -2.96902e-06 -14.338 7.94412 21.3297 1.10858e-05 13.1511 -7.29341e-07 5.8046 -7.45139 -3.37426 3.97569e-16 0.0 3.18055e-15 -2.06241e-08 0.0983294 7.19633e-06
0.0 0.0 0.0 -0.0 0.0 -0.0 1.0650845736532042 1.907372269933191 -1.6490078295101582 -1.1798039231746196 4.0102728075552445 0.47917737605425886 -1.0108985653586884 -1.412824544650543 -0.9250302436555781 0.2812623774023442 0.07583306085855797 -0.6876945584957757 -0.34965414674525264 15.318163166987732 -0.21668271527516217 -0.13284562483509532 0.5800229047120021 -0.9070213150547904 -0.005303001480328464 -14.94170728852675 -0.04426929835887663 -12.178212372477685 6.345308074582467 -13.05718957371782 55.639587027668554 36.44326126022388 34.44364147190121 17.417004870097184 39.91420667166617 82.43496571603964 4.215450343031951 -0.5025606310197603 -3.5494576837070935 -3.86536 -0.725977 10.6206 -1.70868e-06 -5.05035e-06 -4.22763e-05 5.3837e-07 8.68739e-07 -7.6876e-07 3.79151 9.92397e-06 1.68822e-06 1.76556e-31 -6.36111e-15 1.59028e-15 1.59028e-15 0.0 1.59028e-15 12.7179 -3.38534e-07 3.6896e-06 1.59028e-15 -3.18056e-15 -6.36111e-15 -3.18055e-15 -1.27222e-14 -6.36111e-15 20.451 2.13561e-06 4.66857e-06 -5.59711e-07 -9.78871e-07 1.24245e-06 1.11942e-06 1.95774e-06 -2.4849e-06 43.7139 5.29982e-06 -4.35576e-06 -4.8428e-07 -7.08272e-07 1.41429e-06 4.77083e-15 1.27222e-14 3.18055e-15 12.046484431474118 5.414786370112179 11.445472009722229 -35.442146595102855 45.56442145815151 -26.83435068145266 -13.225969322143293 -21.510398433558883 -96.99359677561068 2.0778876938740027 -0.16942531652966838 -3.760096608865921 4.41974 -2.75119 -31.8364 2.03418e-06 8.96391e-07 2.71781e-05 3.54379e-06 -1.37708e-07 7.74142e-07 -99.3752 -3.44396e-06 -1.15962e-07 -2.94194e-05 8.15215e-07 -1.12913e-05 -1.15373e-06 -7.17353e-08 -2.96415e-06 -112.724 2.1834e-06 6.07179e-06 -2.81255e-05 -3.4463e-06 7.51827e-08 -9.56363e-07 -5.99521e-07 6.03149e-07 -94.5227 -9.2214e-07 -5.10994e-06 6.36111e-15 0.0 -1.78906e-14 1.2491e-06 6.621e-07 -9.2051e-07 -89.4629 1.15124e-05 -2.27079e-06 -1.9342e-05 1.85979e-06 1.38071e-06 -4.41391e-32 3.18056e-15 7.95139e-16 3.97569e-16 -1.09925e-15 -1.59028e-15 -20.1051 -0.55943 -19.9906 2.43385e-06 39.5646 -2.64641e-06 4.82005 -16.7989 -10.6968 3.97569e-16 0.0 -3.18056e-15 4.85298e-07 6.71905 -2.96902e-06 -14.338 7.94412 21.3297 1.10858e-05 13.1511 -7.29341e-07 5.8046 -7.45139 -3.37426 3.97569e-16 0.0 3.18055e-15 -2.06241e-08 0.0983294 7.19633e-06
0.0 0.0 0.0 -0.0 0.0 -0.0 1.2991540097600736 1.9714785020039456 -1.7194611412344942 -1.1681834620555853 3.9965022628787845 0.4768978966547572 -0.98308678642465 -1.3809868345357266 -0.9128003818684339 0.27911750788736256 0.047834014433117106 -0.6712323915672835 -0.3475284490301714 15.266934690354644 -0.24869968693384464 -0.1333872417729534 0.543048777043539 -0.8579765249357751 -0.0013516837462808743 -15.01003247909179 -0.040726631638027685 -12.220221996844899 6.408047989847307 -13.133506531591493 56.33649547338904 36.28288984786849 34.87789143171853 16.721335078689297 40.90137069182868 82.27293187260989 3.8611497343782584 -0.48094742501073867 -3.61711139489653 -3.86536 -0.725977 10.6206 -1.70868e-06 -5.05035e-06 -4.22763e-05 5.3837e-07 8.68739e-07 -7.6876e-07 3.79151 9.92397e-06 1.68822e-06 1.76556e-31 -6.36111e-15 1.59028e-15 1.59028e-15 0.0 1.59028e-15 12.7179 -3.38534e-07 3.6896e-06 1.59028e-15 -3.18056e-15 -6.36111e-15 -3.18055e-15 -1.27222e-14 -6.36111e-15 20.451 2.13561e-06 4.66857e-06 -5.59711e-07 -9.78871e-07 1.24245e-06 1.11942e-06 1.95774e-06 -2.4849e-06 43.7139 5.29982e-06 -4.35576e-06 -4.8428e-07 -7.08272e-07 1.41429e-06 4.77083e-15 1.27222e-14 3.18055e-15 12.099244902169305 5.44791687171804 11.439943489891485 -35.75535975613342 45.61056292611723 -26.85370474230616 -12.71875244646104 -21.98483936157581 -96.43501092009673 1.4985103299852165 -0.16484806184357942 -3.5990030049809536 4.41974 -2.75119 -31.8364 2.03418e-06 8.96391e-07 2.71781e-05 3.54379e-06 -1.37708e-07 7.74142e-07 -99.3752 -3.44396e-06 -1.15962e-07 -2.94194e-05 8.15215e-07 -1.12913e-05 -1.15373e-06 -7.17353e-08 -2.96415e-06 -112.724 2.1834e-06 6.07179e-06 -2.81255e-05 -3.4463e-06 7.51827e-08 -9.56363e-07 -5.99521e-07 6.03149e-07 -94.5227 -9.2214e-07 -5.10994e-06 6.36111e-15 0.0 -1.78906e-14 1.2491e-06 6.621e-07 -9.2051e-07 -89.4629 1.15124e-05 -2.27079e-06 -1.9342e-05 1.85979e-06 1.38071e-06 -4.41391e-32 3.18056e-15 7.95139e-16 3.97569e-16 -1.09925e-15 -1.59028e-15 -20.1051 -0.55943 -19.9906 2.43385e-06 39.5646 -2.64641e-06 4.82005 -16.7989 -10.6968 3.97569e-16 0.0 -3.18056e-15 4.85298e-07 6.71905 -2.96902e-06 -14.338 7.94412 21.3297 1.10858e-05 13.1511 -7.29341e-07 5.8046 -7.45139 -3.37426 3.97569e-16 0.0 3.18055e-15 -2.06241e-08 0.0983294 7.19633e-06
0.0 0.0 0.0 -0.0 0.0 -0.0 1.472795011353689 2.022284755935048 -1.7790305149633034 -1.1605698869009051 3.9906073091078405 0.47541321466777586 -0.964519989035601 -1.3597782473030144 -0.8992724002501901 0.27464238757059745 0.01900898759724793 -0.6554784992585047 -0.3267348105114502 15.238757853510082 -0.3147748049873848 -0.12641186787436268 0.5102109724163428 -0.8916178354596259 0.016207904694739237 -15.0796447685136 -0.04026711122401793 -12.296080165951757 6.483596522928196 -13.23406667349411 56.95809850188703 35.87176637438411 35.21561399055237 15.988652154837872 40.94398560152669 82.12729596013216 3.704067779586535 -0.4606639600550169 -3.5839175584890866 -3.86536 -0.725977 10.6206 -1.70868e-06 -5.05035e-06 -4.22763e-05 5.3837e-07 8.68739e-07 -7.6876e-07 3.79151 9.92397e-06 1.68822e-06 1.76556e-31 -6.36111e-15 1.59028e-15 1.59028e-15 0.0 1.59028e-15 12.7179 -3.38534e-07 3.6896e-06 1.59028e-15 -3.18056e-15 -6.36111e-15 -3.18055e-15 -1.27222e-14 -6.36111e-15 20.451 2.13561e-06 4.66857e-06 -5.59711e-07 -9.78871e-07 1.24245e-06 1.11942e-06 1.95774e-06 -2.4849e-06 43.7139 5.29982e-06 -4.35576e-06 -4.8428e-07 -7.08272e-07 1.41429e-06 4.77083e-15 1.27222e-14 3.18055e-15 12.165618102805897 5.493432555190123 11.474429358394369 -36.16728662135322 45.40462166729966 -26.921137746197555 -12.170587204701286 -21.858134402554942 -95.80977296567943 0.9771055056395948 -0.16247777268796676 -3.45898019499268 4.41974 -2.75119 -31.8364 2.03418e-06 8.96391e-07 2.71781e-05 3.54379e-06 -1.37708e-07 7.74142e-07 -99.3752 -3.44396e-06 -1.15962e-07 -2.94194e-05 8.15215e-07 -1.12913e-05 -1.15373e-06 -7.17353e-08 -2.96415e-06 -112.724 2.1834e-06 6.07179e-06 -2.81255e-05 -3.4463e-06 7.51827e-08 -9.56363e-07 -5.99521e-07 6.03149e-07 -94.5227 -9.2214e-07 -5.10994e-06 6.36111e-15 0.0 -1.78906e-14 1.2491e-06 6.621e-07 -9.2051e-07 -89.4629 1.15124e-05 -2.27079e-06 -1.9342e-05 1.85979e-06 1.38071e-06 -4.41391e-32 3.18056e-15 7.95139e-16 3.97569e-16 -1.09925e-15 -1.59028e-15 -20.1051 -0.55943 -19.9906 2.43385e-06 39.5646 -2.64641e-06 4.82005 -16.7989 -10.6968 3.97569e-16 0.0 -3.18056e-15 4.85298e-07 6.71905 -2.96902e-06 -14.338 7.94412 21.3297 1.10858e-05 13.1511 -7.29341e-07 5.8046 -7.45139 -3.37426 3.97569e-16 0.0 3.18055e-15 -2.06241e-08 0.0983294 7.19633e-06
